<?xml version="1.0" encoding="UTF-8"?>
<svg width="176px" height="19px" viewBox="0 0 176 19" version="1.1" xmlns="http://www.w3.org/2000/svg" xmlns:xlink="http://www.w3.org/1999/xlink">
    <title>Grupo</title>
    <defs>
        <path d="M9.24623513,0 L0,17.7440967 L3.46116696,17.7440967 C5.19540279,14.1964602 8.73616576,11.8264408 12.7446812,11.5307429 L12.7446812,11.5307429 L15.3098893,11.3414962 L18.5929728,17.7440967 L22.0284474,17.7440967 L12.8081565,0 L9.24623513,0 Z M11.0396642,3.11394618 L13.7237625,8.30566352 C12.1278122,8.44562724 10.9018825,8.64842677 10.0464773,8.91430854 L10.0464773,8.91430854 C9.19082018,9.1799439 8.31476031,9.5268962 7.41779389,9.95516544 L7.41779389,9.95516544 L11.0396642,3.11394618 Z" id="path-1"></path>
        <polygon id="path-3" points="0 0 18.1257241 0 18.1257241 19 0 19"></polygon>
    </defs>
    <g id="Checkout-process-Digital-Online-" stroke="none" stroke-width="1" fill="none" fill-rule="evenodd">
        <g id="checkout" transform="translate(-545, -33)">
            <g id="Grupo" transform="translate(545, 33)">
                <g transform="translate(0, 0.3562)" fill="#000000">
                    <path d="M3.1070151,15.34675 L11.9235325,15.34675 C13.9696034,15.34675 15.2073717,14.3088501 15.2073717,12.8012832 C15.2073717,11.3186042 13.9696034,10.2807043 11.9235325,10.2807043 L5.75811635,10.2807043 C4.29390242,10.2807043 3.1070151,11.4418117 3.1070151,12.874222 L3.1070151,15.34675 Z M11.3424313,7.61178356 C13.4139426,7.61178356 14.6771514,6.82079146 14.6771514,5.26394158 C14.6771514,3.70709169 13.4139426,2.9409875 11.3424313,2.9409875 C11.3424313,2.9409875 3.1070151,2.9409875 3.1070151,2.9409875 C2.94278536,3.07799423 3.07779631,4.44313326 3.06872841,4.69694069 C3.04656243,5.32653098 3.01255781,5.95636769 3.00097105,6.58620439 C2.97905696,7.76948916 2.90323924,8.97347278 3.10374058,10.1505972 C3.26318448,9.1070297 4.14629717,8.27907535 5.14149917,7.87199779 C7.12888053,7.05882834 9.26789733,7.61178356 11.3424313,7.61178356 L11.3424313,7.61178356 Z M0,0.271820371 L11.6454503,0.271820371 C15.536083,0.271820371 17.7335374,1.92772908 17.7335374,4.94261643 C17.7335374,7.1421166 16.2937564,8.27882893 15.0305476,8.77313739 C16.9252349,9.36625827 18.3146387,10.8984667 18.3146387,13.0730789 C18.3146387,16.1870251 15.8388501,18.0159171 12.1003566,18.0159171 L0,18.0159171 L0,0.271820371 Z" id="Fill-1"></path>
                    <polygon id="Fill-3" points="20.5356192 0.27179573 23.7690811 0.27179573 23.7690811 15.2481593 37.0061997 15.2481593 37.0061997 18.0158925 20.5356192 18.0158925"></polygon>
                    <polygon id="Fill-5" points="79.3662385 18.0158185 76.5370538 18.0158185 64.158615 4.25058459 64.158615 18.0158185 61.0515999 18.0158185 61.0515999 0.271721805 64.38632 0.271721805 76.2592234 13.4438349 76.2592234 0.271721805 79.3662385 0.271721805"></polygon>
                    <path d="M92.3992538,0 C97.0221195,0 100.483035,2.07604626 101.872186,5.48618325 L99.194889,6.91982564 C98.0326865,4.25065851 95.7085334,2.79262104 92.4246943,2.79262104 C88.1554767,2.79262104 85.0230211,5.36272934 85.0230211,9.14396731 C85.0230211,12.9249589 88.1554767,15.4950672 92.4246943,15.4950672 C95.7085334,15.4950672 98.0326865,14.0370297 99.194889,11.368109 L101.872186,12.8012585 C100.483035,16.2118884 97.0221195,18.2876882 92.3992538,18.2876882 C86.3111666,18.2876882 81.7134896,14.4078842 81.7134896,9.14396731 C81.7134896,3.88005037 86.3111666,0 92.3992538,0" id="Fill-7"></path>
                </g>
                <g transform="translate(38.5942, 0.6278)">
                    <mask id="mask-2" fill="white">
                        <use xlink:href="#path-1"></use>
                    </mask>
                    <g id="Clip-10"></g>
                    <polygon id="Fill-9" fill="#000000" mask="url(#mask-2)" points="-0.350625458 18.0875992 22.3793247 18.0875992 22.3793247 -0.343009661 -0.350625458 -0.343009661"></polygon>
                </g>
                <g transform="translate(107.2317, 0)">
                    <g>
                        <mask id="mask-4" fill="white">
                            <use xlink:href="#path-3"></use>
                        </mask>
                        <g id="Clip-12"></g>
                        <path d="M5.38431737,10.4652445 L10.356801,14.9359516 C9.14573257,15.9792726 7.83315408,16.5080792 6.45231445,16.5080792 C4.32110612,16.5080792 2.77427356,15.3171555 2.77427356,13.6765246 C2.77427356,12.1467803 3.55688368,11.1796015 5.38431737,10.4652445 L5.38431737,10.4652445 Z M13.9572609,14.7062928 C15.0773984,13.2423414 15.9423753,11.5930859 16.52927,9.80090966 L16.6395961,9.46504603 L13.9408883,9.46504603 L13.8816951,9.64221841 C13.4303152,10.989862 12.840398,12.1512158 12.126049,13.0989278 L6.55231324,8.12208436 C5.35358727,7.06915312 4.71958994,5.94747211 4.71958994,4.8785239 C4.71958994,3.47346565 5.76466539,2.49199476 7.26036508,2.49199476 C8.85001828,2.49199476 10.0036566,3.57893126 10.0036566,5.07639513 L10.0036566,5.33365238 L12.7550086,5.33365238 L12.7527416,5.0741774 C12.7262935,2.13395378 10.416498,0 7.26036508,0 C4.2072536,0 1.97201631,1.97797309 1.94481261,4.70184435 C1.92440984,6.03568867 2.46017158,7.34390583 3.58081286,8.69253505 C1.85010344,9.51506828 0,10.8565515 0,13.7506955 C0,16.7921956 2.58586275,19.0000739 6.14904358,19.0000739 C8.25405576,19.0000739 10.3366501,18.1600452 12.1852422,16.5684508 L14.2323206,18.3823116 L18.1257241,18.3823116 L13.9572609,14.7062928 Z" id="Fill-11" fill="#000000" mask="url(#mask-4)"></path>
                    </g>
                    <path d="M32.0844963,0.356168221 C36.707362,0.356168221 40.1682771,2.43221448 41.557429,5.84235147 L38.8801316,7.27599386 C37.7179291,4.60682673 35.393776,3.14878926 32.1099368,3.14878926 C27.8407192,3.14878926 24.7082637,5.71889757 24.7082637,9.50013553 C24.7082637,13.2811271 27.8407192,15.8512354 32.1099368,15.8512354 C35.393776,15.8512354 37.7179291,14.3931979 38.8801316,11.7242772 L41.557429,13.1574268 C40.1682771,16.5680566 36.707362,18.6438564 32.0844963,18.6438564 C25.9964092,18.6438564 21.3987321,14.7640525 21.3987321,9.50013553 C21.3987321,4.23621859 25.9964092,0.356168221 32.0844963,0.356168221" id="Fill-13" fill="#000000"></path>
                    <path d="M45.7239022,9.5000616 C45.7239022,13.2810532 48.6792819,15.8511615 53.0497577,15.8511615 C57.4199816,15.8511615 60.3753612,13.2810532 60.3753612,9.5000616 C60.3753612,5.71882364 57.4199816,3.14871533 53.0497577,3.14871533 C48.6792819,3.14871533 45.7239022,5.71882364 45.7239022,9.5000616 M63.6848928,9.5000616 C63.6848928,14.7639785 59.188222,18.6437825 53.0497577,18.6437825 C46.9110414,18.6437825 42.4143707,14.7639785 42.4143707,9.5000616 C42.4143707,4.23614467 46.9110414,0.356094297 53.0497577,0.356094297 C59.188222,0.356094297 63.6848928,4.23614467 63.6848928,9.5000616" id="Fill-15" fill="#000000"></path>
                    <path d="M65.2950747,17.2298287 C65.2950747,16.2412117 65.9897766,15.5307973 67.0318294,15.5307973 C68.0421446,15.5307973 68.7683322,16.2412117 68.7683322,17.2298287 C68.7683322,18.2181992 68.0421446,18.9286136 67.0318294,18.9286136 C65.9897766,18.9286136 65.2950747,18.2181992 65.2950747,17.2298287" id="Fill-17" fill="#000000"></path>
                </g>
            </g>
        </g>
    </g>
</svg>