<?xml version="1.0" encoding="UTF-8"?>
<svg width="553px" height="888px" viewBox="0 0 553 888" version="1.1" xmlns="http://www.w3.org/2000/svg" xmlns:xlink="http://www.w3.org/1999/xlink">
    <title>Forma combinada</title>
    <g id="Checkout-process-Digital-Online-" stroke="none" stroke-width="1" fill="none" fill-rule="evenodd" opacity="0.149390811">
        <g id="Forma-combinada" fill="#FFFFFF" stroke="#E3E3E3" stroke-width="0.694174093">
            <path d="M358.912133,-596 L440.130501,-596 C440.897265,-596 441.51885,-595.378415 441.51885,-594.611652 L441.51885,-475.179652 C441.51885,-474.412888 440.897265,-473.791304 440.130501,-473.791304 L358.912133,-473.791304 C358.145369,-473.791304 357.523784,-474.412888 357.523784,-475.179652 L357.523784,-594.611652 C357.523784,-595.378415 358.145369,-596 358.912133,-596 Z M529.678959,-596 C530.445723,-596 531.067308,-595.378415 531.067308,-594.611652 L531.067308,-475.179652 C531.067308,-474.412888 530.445723,-473.791304 529.678959,-473.791304 L448.460591,-473.791304 C447.693827,-473.791304 447.072242,-474.412888 447.072242,-475.179652 L447.072242,-594.611652 C447.072242,-595.378415 447.693827,-596 448.460591,-596 L529.678959,-596 Z M619.227417,-596 C619.994181,-596 620.615766,-595.378415 620.615766,-594.611652 L620.615766,-475.179652 C620.615766,-474.412888 619.994181,-473.791304 619.227417,-473.791304 L538.009049,-473.791304 C537.242285,-473.791304 536.6207,-474.412888 536.6207,-475.179652 L536.62,-580.872 L536.534623,-580.871862 L536.534623,-578.665777 L535.640527,-578.665777 L535.640527,-584.496839 L536.62,-584.497 L536.6207,-594.611652 C536.6207,-595.378415 537.242285,-596 538.009049,-596 L619.227417,-596 Z M536.62,-583.7 L536.534623,-583.699928 L536.534623,-581.668774 L536.62,-581.669 L536.62,-583.7 Z M266.461685,-245.530895 L-146.446607,239.819859 M265.073337,-253.168938 L-147.834955,232.181815 M260.908292,-256.640776 L-152,228.709977 M278.956819,-233.726646 L-133.951474,251.624108 M277.568471,-241.364689 L-135.339822,243.986064 M273.403426,-245.530895 L-139.504866,239.819859 M288.675256,-217.756191 L-124.233036,267.594562 M287.286908,-225.394234 L-125.621384,259.956519 M283.816037,-229.56044 L-129.092255,255.790313 M302.558738,-206.646309 L-110.349554,278.704444 M301.17039,-214.284353 L-111.737903,271.0664 M297.005345,-217.756191 L-115.902947,267.594562 M315.053872,-194.84206 L-97.8544207,290.508693 M313.665523,-202.480104 L-99.2427689,282.870649 M309.500479,-206.646309 L-103.407813,278.704444 M324.772309,-178.871606 L-88.1359834,306.479147 M323.383961,-186.509649 L-89.5243316,298.841104 M319.91309,-190.675855 L-92.9952021,294.674898 M334.490746,-164.289886 L-78.4175461,321.060867 M333.102398,-171.92793 L-79.8058943,313.422823 M329.631528,-175.399768 L-83.2767648,309.950985 M346.98588,-152.485637 L-65.9224125,332.865116 M345.597532,-160.123681 L-67.3107606,325.227072 M341.432487,-164.289886 L-71.4758052,321.060867 M357.398491,-136.515183 L-55.5098011,348.835571 M356.010143,-144.153226 L-56.8981492,341.197527 M351.845099,-148.319432 L-61.0631938,337.031321 M370.587799,-125.405301 L-42.3204933,359.945452 M369.893625,-133.043345 L-43.0146674,352.307408 M365.72858,-136.515183 L-47.1797119,348.835571 M383.082933,-113.601052 L-29.8253596,371.749701 M381.694585,-121.239096 L-31.2137078,364.111658 M378.223714,-125.405301 L-34.6845783,359.945452 M393.495544,-97.6305975 L-19.4127482,387.720156 M392.107196,-105.268641 L-20.8010964,380.082112 M387.942151,-109.434847 L-24.966141,375.915907 M406.684852,-86.520716 L-6.22344045,398.830037 M405.296504,-94.1587595 L-7.61178864,391.191994 M401.131459,-97.6305975 L-11.7768332,387.720156 M419.179986,-74.7164669 L6.27169322,410.634286 M417.791637,-82.3545104 L4.88334504,402.996243 M413.626593,-86.520716 L0.718300477,398.830037 M428.898423,-58.7460123 L15.9901305,426.604741 M427.510075,-66.3840558 L14.6017823,418.966697 M424.039204,-70.5502614 L11.1309119,414.800492 M442.781905,-47.6361308 L29.8736124,437.714622 M441.393557,-55.2741743 L28.4852642,430.076579 M437.228512,-58.7460123 L24.3202196,426.604741 M455.277038,-35.8318817 L42.3687461,449.518871 M453.88869,-43.4699253 L40.9803979,441.880828 M449.723646,-46.9417632 L36.8153533,438.40899 M464.995476,-19.8614271 L52.0871834,465.489326 M464.301302,-27.4994706 L51.3930093,457.851283 M460.136257,-30.9713086 L47.2279647,454.379445 M474.713913,-5.27970767 L61.8056207,480.071045 M474.019739,-12.9177512 L61.1114466,472.433002 M469.854694,-16.3895891 L56.946402,468.961164 M487.209047,6.5245414 L74.3007543,491.875295 M485.820699,-1.11350212 L72.9124062,484.237251 M482.349828,-5.27970767 L69.4415357,480.071045 M497.621658,22.494996 L84.7133657,507.845749 M496.23331,14.8569525 L83.3250176,500.207706 M492.068265,10.690747 L79.159973,496.0415 M511.50514,33.6048775 L98.5968476,518.955631 M510.116792,25.966834 L97.2084994,511.317587 M505.951747,22.494996 L93.0434549,507.845749 M523.3061,45.4091266 L110.397807,530.75988 M522.611925,37.7710831 L109.703633,523.121836 M518.446881,34.2992451 L105.538589,519.649998 M533.718711,61.3795812 L120.810419,546.730334 M532.330363,53.7415377 L119.42207,539.092291 M528.165318,50.2696997 L115.257026,535.620453 M542.742974,78.738771 L129.834682,564.089524 M541.354626,71.1007275 L128.446334,556.451481 M537.189581,67.6288895 L124.281289,552.979643 M555.238108,90.5430201 L142.329815,575.893773 M553.84976,82.9049766 L140.941467,568.25573 M549.684715,78.738771 L136.776423,564.089524 M564.956545,106.513475 L152.048253,591.864228 M563.568197,98.8754312 L150.659905,584.226184 M560.097326,94.7092256 L147.189034,580.059979 M578.840027,117.623356 L165.931735,602.974109 M577.451679,109.985313 L164.543386,595.336066 M573.286634,106.513475 L160.378342,591.864228 M591.335161,129.427605 L178.426868,614.778358 M589.946812,121.789562 L177.03852,607.140315 M585.781768,117.623356 L172.873476,602.974109 M601.053598,145.39806 L188.145306,630.748813 M599.66525,137.760016 L186.756957,623.11077 M596.194379,133.593811 L183.286087,618.944564 M610.772035,159.979779 L197.863743,645.330532 M609.383687,152.341736 L196.475395,637.692489 M605.912817,148.869898 L193.004524,634.220651 M623.267169,171.784028 L210.358877,657.134782 M621.878821,164.145985 L208.970528,649.496738 M617.713776,159.979779 L204.805484,645.330532 M633.67978,187.754483 L220.771488,673.105236 M632.291432,180.11644 L219.38314,665.467193 M628.126388,175.950234 L215.218095,661.300987 M646.869088,198.864364 L233.960796,684.215118 M646.174914,191.226321 L233.266622,676.577074 M642.009869,187.754483 L229.101577,673.105236 M659.364222,210.668614 L246.455929,696.019367 M657.975874,203.03057 L245.067581,688.381323 M654.505003,198.864364 L241.596711,684.215118 M669.776833,226.639068 L256.868541,711.989821 M668.388485,219.001025 L255.480193,704.351778 M664.22344,214.834819 L251.315148,700.185572 M677.412748,226.639068 L264.504456,711.989821 M682.966141,237.74895 L270.057849,723.099703 M681.577793,230.110906 L268.6695,715.461659 M695.461275,249.553199 L282.552982,734.903952 M694.072926,241.915155 L281.164634,727.265908 M689.907882,238.443317 L276.99959,723.79407 M705.179712,265.523653 L292.27142,750.874407 M703.791364,257.88561 L290.883071,743.236363 M700.320493,254.413772 L287.412201,739.764525 M719.063194,277.327902 L306.154901,762.678656 M717.674846,269.689859 L304.766553,755.040612 M713.509801,265.523653 L300.601509,750.874407 M731.558327,288.437784 L318.650035,773.788537 M730.169979,280.79974 L317.261687,766.150494 M726.004935,277.327902 L313.096642,762.678656 M741.970939,304.408239 L329.062647,789.758992 M740.582591,296.770195 L327.674298,782.120948 M736.417546,293.298357 L323.509254,778.64911 M751.689376,318.989958 L338.781084,804.340711 M750.301028,311.351914 L337.392736,796.702668 M746.135983,307.880077 L333.227691,793.23083 M763.490336,330.794207 L350.582043,816.14496 M762.101988,323.156164 L349.193695,808.506917 M758.631117,319.684326 L345.722825,805.035079 M773.902947,346.764662 L360.994655,832.115415 M772.514599,339.126618 L359.606307,824.477371 M768.349554,335.65478 L355.441262,821.005533 M787.786429,358.568911 L374.878137,843.919664 M786.398081,350.930867 L373.489788,836.28162 M782.233036,346.764662 L369.324744,832.115415 M799.587389,369.678792 L386.679096,855.029545 M798.893215,362.040749 L385.984922,847.391502 M794.72817,358.568911 L381.819878,843.919664 M810,385.649247 L397.091708,871 M808.611652,378.011203 L395.703359,863.361956 M804.446607,374.539365 L391.538315,859.890119"></path>
        </g>
    </g>
</svg>