<?xml version="1.0" encoding="UTF-8"?>
<svg width="40px" height="37px" viewBox="0 0 40 37" version="1.1" xmlns="http://www.w3.org/2000/svg" xmlns:xlink="http://www.w3.org/1999/xlink">
    <title>Group-5</title>
    <g id="Checkout-process-Digital-Online-" stroke="none" stroke-width="1" fill="none" fill-rule="evenodd">
        <g id="checkout" transform="translate(-477, -659)" fill-rule="nonzero">
            <g id="Group-5" transform="translate(477, 659)">
                <path d="M32.7180967,8.26861727 C32.7180967,3.71343604 27.0402692,-5.66659679e-14 20.0367039,-5.66659679e-14 C13.0327563,-5.66659679e-14 7.35531108,3.71343604 7.35531108,8.26861727 C7.35531108,8.38619861 7.35378175,8.7111195 7.35378175,8.75266364 C7.35378175,13.5856951 12.3162654,17.4992291 20.0349834,17.4992291 C27.8007283,17.4992291 32.7180967,13.5862668 32.7180967,8.75342592 C32.7180967,8.58477197 32.7180967,8.48758155 32.7180967,8.26861727" id="Fill-86" fill="#2A3468"></path>
                <path d="M32.2325346,8.26442474 C32.2325346,12.558907 26.77321,16.0406106 20.0388067,16.0406106 C13.3044035,16.0406106 7.84527007,12.558907 7.84527007,8.26442474 C7.84527007,3.96975193 13.3044035,0.488048326 20.0388067,0.488048326 C26.77321,0.488048326 32.2325346,3.96975193 32.2325346,8.26442474" id="Fill-87" fill="#2491C4"></path>
                <path d="M15.9900976,5.81122439 C15.9835979,5.82342083 15.8622074,5.94881552 15.9409679,6.04981732 C16.1334722,6.29469905 16.7276168,6.43514872 17.3288346,6.30098784 C17.6866977,6.22075811 18.1453054,5.85696106 18.5895757,5.50555101 C19.0713146,5.12422157 19.5488477,4.74232042 20.0292484,4.59062715 C20.5377505,4.42921484 20.8634978,4.49839154 21.0787509,4.56318515 C21.3150324,4.63350527 21.5926057,4.78843823 22.0355378,5.11983848 C22.8699783,5.7450968 26.2247541,8.66404885 26.8043701,9.16886729 C27.2711979,8.9586692 29.3459248,8.06832879 32.1654352,7.44897813 C31.9205513,5.95034008 31.0063945,4.57938355 29.6194837,3.45692957 C27.686411,4.2660874 25.3251259,4.6881987 23.0154558,3.56383903 C23.0034123,3.55888422 21.7535676,2.96926239 20.5205456,2.99822894 C18.6880263,3.04072593 17.894113,3.83120795 17.0539375,4.66818891 L15.9900976,5.81122439" id="Fill-88" fill="#FFFFFE"></path>
                <path d="M26.6680686,9.48635597 C26.6286883,9.45129119 22.7233538,6.04486252 21.8386366,5.38206202 C21.3265023,4.99920802 21.042047,4.9014459 20.7428719,4.86352258 C20.5872626,4.84351279 20.3722006,4.87209821 20.2217528,4.91326121 C19.810172,5.0249349 19.2720391,5.38358658 18.7941236,5.7612952 C18.2995766,6.15405881 17.8327487,6.52395408 17.4003307,6.62057279 C16.8470957,6.74425235 16.1718967,6.59827616 15.8637367,6.39055548 C15.7389052,6.30689549 15.6509687,6.21027679 15.6089122,6.11194296 C15.4951683,5.84895714 15.7050688,5.63856848 15.7392875,5.60331314 L16.8170826,4.44103014 C16.9422965,4.31677887 17.0686573,4.19195589 17.1976945,4.0690386 C16.8501544,4.11420356 16.5286128,4.20281835 16.2154826,4.28952744 C15.8251212,4.39910487 15.4494795,4.50334635 15.0694411,4.50296521 C14.9109643,4.50296521 14.0610394,4.36404009 13.8996951,4.32059026 C12.9243651,4.05436476 12.0683228,3.79538089 10.7898032,3.20023254 C9.25760603,4.33697923 8.23314631,5.75862723 7.93702985,7.32453628 C8.15706216,7.38265996 8.51186664,7.48804486 8.66097629,7.52063223 C12.1281578,8.28938934 13.2078646,9.08101478 13.4038099,9.24623848 C13.6160044,9.0110758 13.9218704,8.86224107 14.2634844,8.86224107 C14.647155,8.8626222 14.9927835,9.0547162 15.2030663,9.35181395 C15.401688,9.19554701 15.6752468,9.0615767 16.0294778,9.06195783 C16.1902486,9.06195783 16.3569455,9.09168667 16.525363,9.14866693 C16.916489,9.28263724 17.1183606,9.54219281 17.2231196,9.77716493 C17.3544508,9.7180884 17.5156039,9.674448 17.7056232,9.67501971 C17.8922014,9.67501971 18.0866174,9.7175167 18.2821804,9.80174839 C18.9216314,10.0754061 19.0210378,10.7012361 18.9631145,11.1732766 C19.008612,11.1679407 19.0544919,11.1656538 19.1009453,11.1656538 C19.8587282,11.1662256 20.4754304,11.7804308 20.4752392,12.5364198 C20.4752392,12.7702485 20.415213,12.9903562 20.3106451,13.183403 C20.5169134,13.2988881 21.0426205,13.5605399 21.5042869,13.5020351 C21.8730465,13.4557268 22.0131714,13.3301415 22.0630657,13.2596308 C22.0974757,13.210845 22.1336061,13.1540553 22.100152,13.1134641 L21.1219545,12.0300768 C21.1219545,12.0300768 20.9608014,11.878193 21.0139456,11.8194976 C21.0690014,11.7594682 21.168599,11.8457962 21.2391394,11.904301 C21.7369362,12.3187895 22.3446536,12.944429 22.3446536,12.944429 C22.3551677,12.9512895 22.3953126,13.0305663 22.6201241,13.0707765 C22.8135843,13.1052696 23.1561541,13.0852598 23.3932002,12.8908789 C23.4532264,12.841712 23.5128703,12.7807298 23.563147,12.7174608 C23.5591325,12.7207004 23.5558827,12.724893 23.5520593,12.726227 C23.8022959,12.4070232 23.5243402,12.0841985 23.5243402,12.0841985 L22.3823133,10.8056682 C22.3823133,10.8056682 22.2188662,10.6551183 22.2744956,10.5945172 C22.3241988,10.5421106 22.429149,10.6213875 22.5008364,10.6806546 C22.8623317,10.9821355 23.3735101,11.4932427 23.8628956,11.9713814 C23.9586699,12.0411298 24.3887938,12.3065931 24.9590426,11.9334581 C25.3048623,11.7072522 25.3742556,11.4295925 25.3645062,11.2199661 C25.3404192,10.942497 25.1232544,10.744686 25.1232544,10.744686 L23.563147,9.18106373 C23.563147,9.18106373 23.3983617,9.04080463 23.4564762,8.9699128 C23.5042678,8.91026456 23.6111297,8.99621138 23.6812877,9.0547162 C24.1783198,9.46920472 25.5235565,10.6989493 25.5235565,10.6989493 C25.5428642,10.7124797 26.0075893,11.0423554 26.5822349,10.6777961 C26.7875474,10.5466843 26.9188786,10.3494449 26.9299663,10.1201899 C26.9494652,9.7224715 26.6680686,9.48635597 26.6680686,9.48635597" id="Fill-89" fill="#FFFFFE"></path>
                <path d="M19.1007542,11.4686592 C18.8589289,11.4658007 18.5943549,11.6091089 18.5597538,11.5881463 C18.5406372,11.5755687 18.5744736,11.4787594 18.5970312,11.4229226 C18.6203535,11.3672763 18.9392187,10.4115706 18.1623192,10.0797892 C17.5681746,9.82518843 17.2047677,10.1116143 17.0799362,10.2408204 C17.0472467,10.2747417 17.0325269,10.2720738 17.0287036,10.2288145 C17.0168513,10.0569209 16.9398113,9.59135973 16.4267212,9.43528336 C15.6935988,9.21174541 15.2221829,9.72151865 15.102704,9.90560873 C15.0491775,9.48921451 14.6959024,9.16581818 14.2632932,9.16543619 C13.7934067,9.1650559 13.4118389,9.54486079 13.4114566,10.0130899 C13.4114566,10.4817001 13.7922597,10.861505 14.2623374,10.861505 C14.490781,10.8620767 14.697814,10.7709845 14.850747,10.6248178 C14.8555261,10.6292009 14.8574378,10.6372048 14.8549526,10.6535938 C14.8193957,10.8632201 14.7532522,11.6254979 15.5542386,11.9357449 C15.8752067,12.0601868 16.1483832,11.9677606 16.374724,11.8093974 C16.4422057,11.7619456 16.4532933,11.782146 16.4435438,11.8452245 C16.4146777,12.0411298 16.4513817,12.4609543 17.0417029,12.6995472 C17.4907523,12.881541 17.7566645,12.6955453 17.9308169,12.5350858 C18.0065188,12.4660997 18.0273559,12.4771527 18.0311792,12.5838716 C18.0525898,13.1510062 18.5253439,13.6015124 19.099416,13.6020857 C19.6910754,13.6026558 20.1705203,13.1260416 20.170713,12.5364198 C20.1712849,11.946798 19.6922224,11.474948 19.1007542,11.4686592" id="Fill-90" fill="#FFFFFE"></path>
                <path d="M19.1007542,13.5260469 C18.5647241,13.5254752 18.1288651,13.1104149 18.109175,12.581013 C18.1078369,12.5358481 18.1030577,12.4152176 18.0005926,12.4152176 C17.9587272,12.4152176 17.9220233,12.4403728 17.8799667,12.4782961 C17.7622084,12.5871113 17.6119517,12.6980227 17.3926841,12.6980227 C17.2932776,12.6980227 17.1854599,12.6747732 17.071716,12.6284648 C16.5054817,12.3999721 16.4976439,12.0121633 16.520775,11.8562775 C16.5268923,11.8149239 16.5289951,11.7714741 16.5003202,11.7379339 L16.465528,11.7066805 L16.4303534,11.7066805 C16.4012961,11.7066805 16.3718565,11.7184958 16.3319028,11.7467001 C16.1678822,11.8614229 16.0109347,11.9168786 15.8513109,11.9168786 C15.7633745,11.9168786 15.6733352,11.8993462 15.5831047,11.8646625 C14.8375565,11.5755687 14.8964357,10.8742732 14.9329485,10.6633128 C14.9383011,10.6204347 14.9275958,10.5872756 14.9004502,10.5653601 L14.8476883,10.5221009 L14.7983674,10.5689809 C14.6532723,10.7084778 14.4632531,10.7848961 14.2636756,10.7848961 C13.8366102,10.7843244 13.4892612,10.438822 13.4896427,10.0130899 C13.4898347,9.58735777 13.8375661,9.24185538 14.2644402,9.24242497 C14.6502136,9.24242497 14.9788283,9.53152093 15.0279581,9.91570891 L15.0545302,10.1228579 L15.1688476,9.94753401 C15.1814645,9.92695251 15.4942124,9.45567429 16.0694316,9.456246 C16.1785875,9.456246 16.2915667,9.47377839 16.4055018,9.50865259 C16.8637272,9.64833999 16.9411495,10.0624474 16.9533841,10.2351033 C16.9614131,10.3357239 17.0332916,10.3404882 17.0472467,10.3404882 C17.0868181,10.3404882 17.1158754,10.3155236 17.1369037,10.2939892 C17.2233108,10.2040405 17.4116095,10.0540623 17.7063878,10.0540623 C17.8413512,10.054634 17.984917,10.0864591 18.133262,10.1501093 C18.8617964,10.4616903 18.5314612,11.3846181 18.5272555,11.3941466 C18.4647442,11.5469833 18.462259,11.6146354 18.5211382,11.6537022 L18.549622,11.6674232 L18.5710326,11.6674232 C18.6041043,11.6674232 18.6448227,11.6531305 18.7121132,11.6302621 C18.8115197,11.5961502 18.9610117,11.544887 19.1009453,11.5450776 L19.1013276,11.5450776 C19.6495923,11.5509852 20.0957743,11.9959649 20.0953927,12.5364198 C20.0950096,13.0824012 19.6488277,13.5260469 19.1007542,13.5260469 Z M26.8190899,9.07834681 C25.6160809,8.03193003 22.8357596,5.62237008 22.082947,5.05904683 C21.6526319,4.7362222 21.3591917,4.56604369 21.1016909,4.48943478 C20.9860353,4.45456057 20.825838,4.4151127 20.6197609,4.41473156 C20.4282123,4.41473156 20.2223263,4.44922463 20.0076466,4.51744849 C19.5209375,4.67085688 19.03614,5.05504487 18.5672093,5.42665527 L18.5429312,5.44571221 C18.1061164,5.79178631 17.6547729,6.14986628 17.3131589,6.22590348 C17.1638581,6.25925314 17.010734,6.27659495 16.857801,6.27659495 C16.4750863,6.27602325 16.1311783,6.16606468 16.0023322,6.00217497 C15.9811128,5.97511411 15.9946856,5.9314737 16.04458,5.86820465 L16.0510796,5.86001017 L17.1093757,4.72288234 C17.9380813,3.89657326 18.7212892,3.11638199 20.5236042,3.07502842 C20.553235,3.07407558 20.5838216,3.07369444 20.6134524,3.07369444 C21.7352157,3.07426615 22.8565967,3.57489206 22.9825752,3.63301573 C24.0343717,4.1445041 25.1201958,4.40425024 26.2113725,4.40520309 C27.3488114,4.40539366 28.5221896,4.12487545 29.7561675,3.55850308 C29.6183367,3.44282744 29.474962,3.33039147 29.3273817,3.22024233 C28.2432781,3.68847144 27.2107894,3.92515868 26.21424,3.92496811 C25.1964711,3.92401526 24.1800403,3.68046752 23.192858,3.20042311 C23.1406697,3.17564909 21.9024861,2.59345946 20.6140259,2.59288775 C20.5803806,2.59288775 20.5461619,2.59345946 20.5123254,2.59403117 C18.9984802,2.62947708 18.1458789,3.16516777 17.5723803,3.63473086 C17.0147485,3.64826129 16.5335831,3.7822316 16.1051796,3.90152807 C15.7232296,4.00748468 15.393659,4.09914857 15.0717351,4.09895801 C14.9392569,4.09895801 14.7006815,4.08695213 14.6792709,4.08599928 C14.3091731,4.07475569 12.4449202,3.61910416 10.9620439,3.05940173 C10.8106403,3.16631118 10.6649717,3.27646032 10.5231263,3.38908686 C12.0723373,4.02215852 13.9574273,4.5117314 14.5525277,4.55022643 C14.7178865,4.56089832 14.8943329,4.57957412 15.0707793,4.57995526 C15.4645817,4.57995526 15.8572371,4.4699967 16.2374667,4.36384952 C16.462087,4.30115218 16.7098384,4.23273775 16.9703979,4.18299913 C16.9008134,4.25103242 16.8314201,4.32020912 16.7618356,4.3895764 L15.6865256,5.54919142 C15.6020302,5.63437595 15.4181283,5.86134415 15.5393277,6.14148122 C15.5873104,6.25429833 15.6851875,6.3623512 15.8220625,6.45420567 C16.0784164,6.6260993 16.5370241,6.74253723 16.9633248,6.7427278 C17.124669,6.74310893 17.2779843,6.72671996 17.4184915,6.69527601 C17.8694526,6.59465534 18.3420155,6.21904298 18.8430621,5.82208685 C19.242026,5.50612272 19.809025,5.10478349 20.2431634,4.98701158 C20.3643628,4.95404307 20.5134724,4.93346157 20.6331425,4.93346157 C20.6688906,4.93384271 20.7025358,4.93498612 20.7340782,4.93955979 C21.0208276,4.97576798 21.2982097,5.07295839 21.793139,5.44342538 C22.6757534,6.10451075 26.5816614,9.51055829 26.6197035,9.54409851 C26.6223798,9.54619477 26.8716606,9.76039482 26.8542644,10.1165691 C26.8448973,10.3149519 26.7344032,10.4912286 26.5422812,10.6135742 C26.3755843,10.7191497 26.2035347,10.7726997 26.0295734,10.7726997 C25.7684404,10.772128 25.5889353,10.6503541 25.5768918,10.641969 C25.5627455,10.6303443 24.2243909,9.40707908 23.7321379,8.99621138 C23.6537598,8.93141777 23.5774844,8.87291295 23.5006356,8.87291295 C23.4593437,8.87272238 23.4230221,8.89044534 23.3983617,8.92093645 C23.3207482,9.01622117 23.4077288,9.14809522 23.5098116,9.23480431 L25.0727865,10.8010945 C25.0750805,10.8028096 25.2677761,10.9828978 25.2888044,11.2232058 C25.3012302,11.482952 25.1765898,11.7000105 24.9177507,11.8692362 C24.7332753,11.9904384 24.5466971,12.0518017 24.3637511,12.0518017 C24.1234551,12.0518017 23.9552289,11.9429866 23.9177603,11.9168786 L23.6935223,11.6967709 C23.2838531,11.2946694 22.8606112,10.879228 22.5507307,10.6213875 C22.4754112,10.5588808 22.3949303,10.5009476 22.3176991,10.5009476 C22.279657,10.5009476 22.2456295,10.5150498 22.2194397,10.5426824 C22.1840739,10.5817491 22.1594135,10.6520692 22.2475411,10.7686977 C22.2838627,10.8167212 22.3264928,10.8563596 22.3264928,10.8563596 L23.4671815,12.1339371 C23.4767399,12.1453713 23.702316,12.4123591 23.492989,12.6787752 L23.4528441,12.7296572 C23.4184342,12.76739 23.3817302,12.801883 23.3465557,12.8318024 C23.1521396,12.9909279 22.8921536,13.007698 22.789115,13.007698 C22.7340591,13.007698 22.6811061,13.0031243 22.635035,12.9947393 C22.5226293,12.9747295 22.4465451,12.9434761 22.4102236,12.9004074 L22.3962684,12.8859241 C22.3339483,12.8217022 21.7591115,12.2366541 21.2832988,11.8406508 C21.2205962,11.7882442 21.1424093,11.7223072 21.061546,11.7223072 C21.0214011,11.7223072 20.9860353,11.7379339 20.9585074,11.7682344 C20.8644536,11.8709513 21.0057254,12.0247409 21.0655605,12.0809588 L22.0384053,13.1504345 C22.0374495,13.159963 22.0252148,13.182069 22.0015102,13.2157998 C21.966718,13.2636328 21.8487684,13.3814047 21.4960668,13.4256168 C21.4536279,13.4311433 21.4098508,13.4334301 21.3668384,13.4334301 C21.0026668,13.4334301 20.6145994,13.257344 20.4144483,13.1515779 C20.5056346,12.9598651 20.5528527,12.7487141 20.5528527,12.5369915 C20.553235,11.7385056 19.9028876,11.0892355 19.1022835,11.0886638 C19.0850785,11.0886638 19.0669177,11.0892355 19.0499039,11.0898072 C19.0759025,10.7254384 19.0242877,10.0351959 18.3137229,9.73142826 C18.109175,9.64319462 17.9052007,9.5984108 17.7069613,9.5984108 C17.5517344,9.5984108 17.4024335,9.62489995 17.2621175,9.67844996 C17.1149196,9.39316752 16.870418,9.18544683 16.5513616,9.07701282 C16.3752975,9.01622117 16.1999981,8.98553949 16.0306248,8.98553949 C15.7348907,8.98553949 15.4624789,9.07243915 15.2196978,9.24452335 C14.9866662,8.95600123 14.6351115,8.78506044 14.2648225,8.78506044 C13.9407958,8.78506044 13.6290037,8.91426652 13.398075,9.14237814 C13.0952677,8.91178912 11.8939792,8.1512265 8.67875474,7.42344182 C8.52276312,7.38780534 8.16547347,7.28604126 7.94677933,7.2222005 C7.91045775,7.39561868 7.88273865,7.57094257 7.86457786,7.74817214 C7.86457786,7.74817214 8.45738427,7.88957466 8.57399566,7.91587324 C11.8586135,8.64289564 12.9440552,9.39926574 13.1273836,9.54219281 C13.0652546,9.69102754 13.0329475,9.85148701 13.0327563,10.0130899 C13.0321828,10.6894208 13.5842708,11.2405476 14.2632932,11.2411193 C14.3391862,11.2411193 14.414888,11.2344494 14.4888693,11.220919 C14.5911433,11.7184958 14.9178463,12.0958233 15.4175548,12.2896324 C15.5632234,12.3454692 15.7109949,12.3742452 15.8558989,12.3742452 C15.9497615,12.3744358 16.0440065,12.362811 16.1361486,12.339371 C16.2284819,12.572628 16.4358972,12.8638181 16.8998576,13.0517196 C17.06254,13.1170849 17.2252225,13.1510062 17.3833169,13.1510062 C17.5125453,13.1510062 17.638715,13.1283285 17.7591497,13.0844975 C17.981476,13.6241901 18.5104329,13.981703 19.1003718,13.981703 C19.4913067,13.9822701 19.8667572,13.8235258 20.140316,13.5426264 C20.3746858,13.6724042 20.8694239,13.9073763 21.3689412,13.907948 C21.4337466,13.907948 21.4945374,13.9035649 21.5551371,13.8963233 C22.0512134,13.833626 22.2825245,13.6403885 22.3884306,13.4898387 C22.4075472,13.4635401 22.4249434,13.435717 22.4396632,13.4065598 C22.5568481,13.4404812 22.6856941,13.4679232 22.8334656,13.4681138 C23.1043481,13.4681138 23.3645253,13.3758782 23.6271877,13.1851182 C23.8856444,12.9995035 24.0693551,12.7328969 24.095736,12.5061193 C24.0963095,12.5028796 24.0965007,12.4994493 24.0970742,12.4962096 C24.184246,12.5141232 24.2735206,12.5230799 24.3627952,12.5230799 C24.6418979,12.5230799 24.9164126,12.4363708 25.1785014,12.2652395 C25.6847096,11.9346015 25.7722637,11.5025806 25.7640435,11.2199661 C25.8527447,11.2382608 25.9429751,11.2477893 26.0328232,11.2477893 C26.2949121,11.2477893 26.5522218,11.1690841 26.7971057,11.0133889 C27.1108095,10.8136721 27.2996817,10.507427 27.3283566,10.1514433 C27.3478556,9.90961069 27.2876382,9.66530067 27.1595569,9.45548372 C28.007379,9.0914961 29.9448485,8.38677032 32.2262261,7.87432911 C32.2126533,7.69786181 32.187037,7.52368134 32.1553034,7.35026316 C29.3946722,7.9610382 27.3348563,8.84947291 26.8190899,9.07834681 L26.8190899,9.07834681 Z" id="Fill-91" fill="#2A3468"></path>
                <path d="M38.179333,25.7177266 C37.9571979,26.0113941 37.6394796,26.1583231 37.2238843,26.1583231 C36.809436,26.1583231 36.4901884,26.0113941 36.2661416,25.7177266 C36.0420948,25.4240591 35.9306449,25.0057592 35.9306449,24.4643514 C35.9306449,23.9235153 36.0420948,23.5061683 36.2661416,23.2140253 C36.4901884,22.9218824 36.809436,22.7757156 37.2238843,22.7757156 C37.6394796,22.7757156 37.9571979,22.9218824 38.179333,23.2140253 C38.4010858,23.5061683 38.5127269,23.9235153 38.5127269,24.4643514 C38.5127269,25.0057592 38.4010858,25.4240591 38.179333,25.7177266 Z M39.3135221,22.4384077 C38.8558702,21.8663183 38.1609811,21.5808452 37.2282811,21.5808452 C36.2969194,21.5808452 35.6020302,21.8663183 35.1443783,22.4384077 C34.686344,23.0093537 34.4571358,23.6849224 34.4571358,24.4643514 C34.4571358,25.2576919 34.686344,25.9353569 35.1443783,26.4994424 C35.6020302,27.0620034 36.2969194,27.3438556 37.2282811,27.3438556 C38.1609811,27.3438556 38.8558702,27.0620034 39.3135221,26.4994424 C39.7715564,25.9353569 40,25.2576919 40,24.4643514 C40,23.6849224 39.7715564,23.0093537 39.3135221,22.4384077 L39.3135221,22.4384077 Z" id="Fill-92" fill="#2A3468"></path>
                <path d="M26.8936447,25.0501618 C26.8840864,25.5244892 26.7475937,25.8511252 26.4858872,26.0302604 C26.2241806,26.2093957 25.9380048,26.2993445 25.627742,26.2993445 C25.431032,26.2993445 25.2647174,26.2446511 25.1278424,26.1373605 C24.9911586,26.0296887 24.9229122,25.8545554 24.9229122,25.6121511 C24.9229122,25.3403991 25.0345533,25.13992 25.2587913,25.0103328 C25.3916518,24.9342956 25.6093901,24.8691209 25.9125797,24.8170954 L26.2367976,24.757066 C26.3981419,24.7267655 26.5256497,24.6939876 26.617983,24.6593039 C26.7118456,24.6250014 26.8026496,24.580027 26.8936447,24.5230468 L26.8936447,25.0501618 Z M27.6147236,21.9600784 C27.1507632,21.7254874 26.61913,21.6069533 26.0215444,21.6069533 C25.1022261,21.6069533 24.4537903,21.8461179 24.0762371,22.3233038 C23.8388087,22.6289771 23.7053746,23.0183105 23.6744057,23.4928284 L25.0477438,23.4928284 C25.0811978,23.2835832 25.1486795,23.1175972 25.2501888,22.9952516 C25.3916518,22.8296468 25.63233,22.7465585 25.972797,22.7465585 C26.2769425,22.7465585 26.5069154,22.7882932 26.6642452,22.8738589 C26.8206192,22.9579 26.8993797,23.1116895 26.8993797,23.3335123 C26.8993797,23.5162684 26.7974881,23.6500482 26.5929402,23.7369478 C26.4786228,23.7864959 26.2893683,23.8278495 26.0238384,23.8611991 L25.5369381,23.9204662 C24.9844677,23.9904052 24.5642844,24.1070337 24.2800203,24.2695894 C23.7600482,24.5682117 23.5004445,25.0501618 23.5004445,25.7171549 C23.5004445,26.2307395 23.6615976,26.6284579 23.985242,26.9084044 C24.3071659,27.188732 24.7174086,27.306504 25.212529,27.3293723 C28.3178329,27.4673446 28.2826584,25.6980979 28.3111421,25.3302989 L28.3111421,23.2936833 C28.3111421,22.6406019 28.078684,22.1960034 27.6147236,21.9600784 L27.6147236,21.9600784 Z" id="Fill-93" fill="#2A3468"></path>
                <path d="M20.5345007,22.8203089 C20.8894964,22.8203089 21.1502471,22.9293146 21.3186645,23.1477071 C21.4337466,23.30931 21.5060074,23.491685 21.5341088,23.6938792 L23.0659237,23.6938792 C22.9818105,22.9234069 22.7113103,22.3858105 22.2548054,22.08109 C21.7971535,21.777894 21.2106556,21.6248668 20.4932088,21.6248668 C19.6494012,21.6248668 18.9870103,21.8834695 18.5085212,22.3985787 C18.028694,22.9152124 17.7887805,23.6365178 17.7887805,24.5636381 C17.7887805,25.3849923 18.0059453,26.0542722 18.4398926,26.5701437 C18.874031,27.0860151 19.5511417,27.3438556 20.4714159,27.3438556 C21.3924547,27.3438556 22.0877262,27.0345614 22.5562746,26.4161636 C22.8504793,26.033119 23.0148823,25.6260627 23.0496745,25.196138 L21.5232124,25.196138 C21.4920523,25.4804676 21.4029688,25.7122001 21.2551973,25.8907636 C21.1079994,26.0687555 20.8596744,26.1583231 20.5086933,26.1583231 C20.0145286,26.1583231 19.6778849,25.9338323 19.4991445,25.4833262 C19.4012674,25.2432087 19.3515642,24.9249577 19.3515642,24.5289544 C19.3515642,24.1140848 19.4012674,23.7809694 19.4991445,23.5294177 C19.6847669,23.0571867 20.0305866,22.8203089 20.5345007,22.8203089" id="Fill-94" fill="#2A3468"></path>
                <path d="M17.3783466,21.6248668 C14.2321331,21.6248668 14.4181378,24.4018446 14.4181378,24.4018446 L14.4181378,27.2222723 L15.8459583,27.2222723 L15.8459583,24.5765968 C15.8459583,24.1434325 15.9010141,23.822323 16.0095965,23.6134589 C16.2059242,23.2435636 16.5882567,23.0581395 17.1592701,23.0581395 C17.2024737,23.0581395 17.2588677,23.0602358 17.3286434,23.063666 C17.3982279,23.0670963 17.4771795,23.0730039 17.5679835,23.0838664 L17.5679835,21.6355387 C17.5045163,21.6313461 17.4634156,21.6294405 17.4460194,21.6277253 C17.427094,21.6260102 17.4047275,21.6248668 17.3783466,21.6248668" id="Fill-95" fill="#2A3468"></path>
                <path d="M10.2145841,23.0987308 C10.4153086,22.8931064 10.6972787,22.7900083 11.061068,22.7900083 C11.3959912,22.7900083 11.6762409,22.8864365 11.9025817,23.0815796 C12.1281578,23.2753887 12.2543275,23.5606711 12.280135,23.9349495 L9.83664847,23.9349495 C9.88788102,23.5833489 10.014433,23.3049269 10.2145841,23.0987308 Z M12.1337016,25.7484082 C12.0736755,25.8337834 12.0092524,25.906962 11.9383298,25.9637517 C11.7366494,26.1289754 11.4625171,26.1794763 11.1400197,26.1794763 C10.8349184,26.1794763 10.596343,26.1335491 10.3799428,25.9974825 C10.0239914,25.7796616 9.82345801,25.4101475 9.80204739,24.8679775 L13.7524971,24.8679775 C13.7580409,24.4014635 13.7429388,24.0441458 13.7052791,23.7950715 C13.6393267,23.3718168 13.4949962,22.9981101 13.2734346,22.6773818 C13.0270213,22.313013 12.7135088,22.0464064 12.3361467,21.8769901 C11.9576376,21.7090985 11.5328663,21.6242951 11.061068,21.6242951 C10.2654343,21.6242951 9.61986599,21.8745127 9.12130452,22.3736141 C8.62350771,22.8740494 8.37346231,23.5919245 8.37346231,24.5280016 C8.37346231,25.5279194 8.64969748,26.2490342 9.20178549,26.6924892 C9.75310884,27.1359443 10.3906481,27.3579577 11.1119183,27.3579577 C11.9861213,27.3579577 12.6668642,27.0951625 13.1526175,26.5690002 C13.4143241,26.2922934 13.5785359,26.0184451 13.647738,25.7484082 L12.1337016,25.7484082 L12.1337016,25.7484082 Z" id="Fill-96" fill="#2A3468"></path>
                <path d="M7.80015484,27.2217006 L6.49621013,27.2217006 L6.49621013,23.9484799 C6.49621013,23.6490953 6.39699487,22.9378902 5.53674692,22.9378902 C4.9632483,22.9378902 4.54822646,23.3502825 4.54822646,23.9484799 L4.54822646,27.2217006 L3.24256124,27.2217006 L3.24256124,23.9484799 C3.24256124,23.6490953 3.15366896,22.9378902 2.29380335,22.9378902 C1.71036408,22.9378902 1.30490055,23.3502825 1.30490055,23.9484799 L1.30490055,27.2217006 L0,27.2217006 L0,23.9795427 C0,22.6282149 0.899628182,21.6060004 2.29380335,21.6060004 C2.98601619,21.6060004 3.54938301,21.895666 3.91565747,22.3602742 C4.30047505,21.895666 4.87378251,21.6060004 5.53674692,21.6060004 C6.96036169,21.6060004 7.80015484,22.5864802 7.80015484,23.9795427 L7.80015484,27.2217006" id="Fill-97" fill="#2A3468"></path>
                <path d="M32.3200887,25.7293513 C32.1117175,26.0270208 31.8052781,26.1760461 31.4049761,26.1760461 C31.0027624,26.1760461 30.7037784,26.0256868 30.5064949,25.7268739 C30.3094025,25.4272987 30.2107607,24.9912759 30.2107607,24.4921745 C30.2107607,24.0287097 30.3071085,23.641282 30.5015246,23.3291293 C30.6953671,23.0167859 30.9993214,22.8601379 31.4143432,22.8601379 C31.6865639,22.8601379 31.9251393,22.9460847 32.1312165,23.1175972 C32.4661397,23.4023079 32.6336013,23.9126529 32.6336013,24.5737382 C32.6336013,25.046541 32.5288422,25.4318724 32.3200887,25.7293513 Z M34.0327468,19.9154589 C34.0327468,19.9154589 32.5944122,19.7622411 32.5944122,20.9136616 L32.5932652,22.4384077 C32.4342149,22.1838069 32.2269908,21.9842807 31.9715927,21.8409725 C31.7167681,21.6972832 31.4250485,21.6248668 31.0956691,21.6248668 C30.3822368,21.6248668 29.8137085,21.8893772 29.3870255,22.4183979 C28.9601514,22.9479904 28.7479569,23.7106493 28.7479569,24.6328148 C28.7479569,25.4332064 28.9641659,26.089337 29.3971574,26.6002536 C29.8299577,27.1105986 30.679118,27.3345177 31.4328863,27.3345177 C34.061804,27.3345177 34.0315998,25.0873229 34.0315998,25.0873229 L34.0327468,19.9154589 L34.0327468,19.9154589 Z" id="Fill-98" fill="#2A3468"></path>
                <path d="M12.7869166,31.9691664 C12.7869166,31.4313794 12.6821575,31.0180343 12.4709188,30.7283688 C12.260636,30.4398466 11.9597404,30.2938704 11.5672762,30.2938704 C11.1891494,30.2938704 10.8945623,30.4398466 10.6833236,30.7283688 C10.4879517,30.9907829 10.390457,31.4050808 10.390457,31.9691664 C10.390457,32.4941852 10.4950249,32.8858053 10.7054989,33.1480289 C10.9150171,33.4376944 11.2170597,33.5825272 11.6091416,33.5825272 C11.973122,33.5825272 12.260636,33.4376944 12.4709188,33.1480289 C12.6821575,32.8585539 12.7869166,32.4669337 12.7869166,31.9691664 M10.390457,35.8264823 C10.390457,36.0195292 10.320299,36.185134 10.1790272,36.3227251 C10.0398582,36.4606974 9.87144072,36.529493 9.67473069,36.529493 L8.96034257,36.529493 L8.96034257,31.5756405 C8.96034257,30.6121214 9.28628096,30.0087786 9.82231101,29.60096 C10.1769243,29.3314948 10.7043519,29.0744166 11.6934459,29.0744166 C12.3609983,29.0744166 13.1430592,29.3328288 13.5651542,29.8460323 C14.0394376,30.4236482 14.2367211,31.0666295 14.2367211,31.9070407 C14.2367211,32.7762279 14.0268206,33.4775234 13.6068285,34.0166444 C13.1862628,34.5410915 12.6464094,34.8021716 11.9872683,34.8021716 C11.6374342,34.8021716 11.3290831,34.7402365 11.0627885,34.616557 C10.7819654,34.4783941 10.5586832,34.2645752 10.390457,33.9749097 L10.390457,35.8264823" id="Fill-99" fill="#2491C4"></path>
                <path d="M21.3586183,31.9699286 C21.3586183,32.9199173 21.6338976,33.4466512 22.1848386,33.5505115 C22.7344415,33.6524662 23.1412432,33.5251658 23.4027585,33.1676575 C23.5268254,33.0172983 23.6157177,32.7785148 23.6707736,32.4556901 C23.7258294,32.1321032 23.7298439,31.8113749 23.6812877,31.4950296 C23.6338785,31.1773503 23.5199434,30.8949264 23.3406295,30.646805 C23.1622714,30.3996365 22.9005649,30.2748135 22.5558922,30.2748135 C22.0879173,30.2748135 21.7719196,30.44766 21.6065608,30.7910661 C21.4404374,31.1359968 21.3586183,31.5285698 21.3586183,31.9699286 M23.7124478,34.3453767 L23.7124478,33.9953006 C23.4650787,34.3817754 23.1305378,34.6211306 22.710928,34.718321 C22.2909359,34.8136058 21.8741935,34.779875 21.4628038,34.6140796 C21.048929,34.4494276 20.6939333,34.1428013 20.3978169,33.6953443 C20.1024651,33.2463627 19.9546936,32.6576937 19.9546936,31.9274316 C19.9546936,31.0746334 20.150639,30.3815324 20.5425297,29.8515588 C20.9351851,29.3213946 21.5654601,29.0791809 22.4323988,29.0557408 C23.287103,29.0334442 23.7837528,29.2259193 24.2700796,29.5931466 C24.801904,29.9958198 25.1163877,30.6132648 25.1163877,31.5767839 L25.1163877,34.4913528 C25.1184753,35.4182826 24.4698483,37.1374095 22.4323988,36.9912427 C21.1699372,36.9001505 20.4695042,36.3840885 20.0785693,35.2141827 L21.5857237,35.2141827 C21.6958354,35.4068484 21.8640617,35.5549209 22.0926965,35.6574472 C22.3184638,35.7616887 22.5469074,35.788559 22.7722924,35.7405355 C22.999589,35.692512 23.2064308,35.5577794 23.3930091,35.3376717 C23.5782491,35.1173734 23.6847287,34.7865449 23.7124478,34.3453767" id="Fill-100" fill="#2491C4"></path>
                <path d="M18.0086216,32.5448766 C17.9996368,33.0199662 17.8631441,33.3466022 17.6010552,33.5259281 C17.3389664,33.7056351 17.0520259,33.7953933 16.7413808,33.7953933 C16.5444796,33.7953933 16.3777827,33.7406998 16.2409077,33.6335998 C16.1036503,33.5255469 16.0350216,33.3498419 16.0350216,33.107247 C16.0350216,32.835495 16.1472362,32.6342537 16.3716653,32.5044759 C16.5050994,32.4282481 16.7228377,32.3630734 17.0269831,32.3106668 L17.3513922,32.2510186 C17.5136923,32.2201463 17.641009,32.1877495 17.7327688,32.1524942 C17.8270137,32.1187634 17.9180088,32.0732173 18.0086216,32.016237 L18.0086216,32.5448766 Z M18.731421,29.4490761 C18.2663136,29.2146757 17.7339158,29.0953793 17.1357567,29.0953793 C16.2147179,29.0953793 15.5655174,29.3353062 15.1870083,29.8130638 C14.9495799,30.1189277 14.8155724,30.5092139 14.7846035,30.9844941 L16.1606178,30.9844941 C16.1944543,30.7748677 16.2617448,30.6086911 16.363254,30.486155 C16.5050994,30.320169 16.7463511,30.2368902 17.0868181,30.2368902 C17.3923017,30.2368902 17.6222747,30.2788155 17.7794133,30.3643811 C17.9357873,30.4488034 18.0151212,30.6025929 18.0151212,30.825178 C18.0151212,31.0081247 17.9128473,31.1422856 17.7075348,31.2289947 C17.5937909,31.2787333 17.404154,31.3198963 17.1380507,31.3536271 L16.6503857,31.4128942 C16.0967683,31.4828332 15.6760115,31.5996522 15.3917474,31.7623985 C14.8704371,32.0615925 14.6108334,32.5448766 14.6108334,33.2122508 C14.6108334,33.7267883 14.7719865,34.1248878 15.0960132,34.4057872 C15.4187018,34.6864959 15.8297091,34.8044584 16.3255943,34.8275173 C19.435295,34.9658707 19.4001204,33.1933844 19.4286042,32.8248231 L19.4286042,30.7849679 C19.4286042,30.130743 19.1963373,29.6855728 18.731421,29.4490761 L18.731421,29.4490761 Z" id="Fill-101" fill="#2491C4"></path>
                <path d="M29.3895107,33.1827125 C29.1671844,33.4775234 28.8485103,33.624643 28.432915,33.624643 C28.0178932,33.624643 27.6974986,33.4775234 27.473643,33.1827125 C27.2488315,32.8892356 27.1369993,32.4701734 27.1369993,31.9280034 C27.1369993,31.3860239 27.2488315,30.9682957 27.473643,30.6757716 C27.6974986,30.3828664 28.0178932,30.2368902 28.432915,30.2368902 C28.8485103,30.2368902 29.1671844,30.3828664 29.3895107,30.6757716 C29.6120282,30.9682957 29.7232869,31.3860239 29.7232869,31.9280034 C29.7232869,32.4701734 29.6120282,32.8892356 29.3895107,33.1827125 M30.5258027,29.8984389 C30.0670038,29.3253966 29.3707764,29.0395424 28.4369295,29.0395424 C27.5044207,29.0395424 26.8083845,29.3253966 26.3493945,29.8984389 C25.8907867,30.4705283 25.6613873,31.1472404 25.6613873,31.9280034 C25.6613873,32.7226779 25.8907867,33.400724 26.3493945,33.9661435 C26.8083845,34.5290856 27.5044207,34.8122718 28.4369295,34.8122718 C29.3707764,34.8122718 30.0670038,34.5290856 30.5258027,33.9661435 C30.9840281,33.400724 31.2130452,32.7226779 31.2130452,31.9280034 C31.2130452,31.1472404 30.9840281,30.4705283 30.5258027,29.8984389" id="Fill-102" fill="#2491C4"></path>
            </g>
        </g>
    </g>
</svg>