<?xml version="1.0" encoding="UTF-8"?>
<svg width="22px" height="22px" viewBox="0 0 22 22" version="1.1" xmlns="http://www.w3.org/2000/svg" xmlns:xlink="http://www.w3.org/1999/xlink">
    <title>WhatsApp (1)</title>
    <defs>
        <linearGradient x1="48.9819823%" y1="6.38771185%" x2="49.4888977%" y2="91.0929469%" id="linearGradient-1">
            <stop stop-color="#57D163" offset="0%"></stop>
            <stop stop-color="#23B33A" offset="100%"></stop>
        </linearGradient>
    </defs>
    <g id="Checkout-process-Digital-Online-" stroke="none" stroke-width="1" fill="none" fill-rule="evenodd">
        <g id="checkout" transform="translate(-131, -786)">
            <g id="WhatsApp-(1)" transform="translate(131, 786)">
                <path d="M6.15676466,18.5281785 L6.48781333,18.7234168 C7.87821774,19.544922 9.47243556,19.9794895 11.098203,19.9802268 L11.1016098,19.9802268 C16.0942977,19.9802268 20.1575313,15.9359617 20.1596056,10.9651992 C20.1604937,8.55642394 19.2191898,6.29127567 17.5089938,4.58736393 C15.8147235,2.89002311 13.5087665,1.93805925 11.1051646,1.94365853 C6.10862559,1.94365853 2.04524386,5.98750603 2.04345701,10.9579736 C2.0410057,12.6552466 2.52109826,14.3185575 3.42824226,15.7556169 L3.64375717,16.0965467 L2.72852239,19.4229717 L6.15676466,18.5281785 Z M0.111830759,22 L1.65805763,16.3796718 C0.70445972,14.734892 0.202776568,12.8689206 0.203369049,10.9572363 C0.205887092,4.97680841 5.09444651,0.111480508 11.1017579,0.111480508 C14.0169117,0.112955118 16.7531364,1.24235884 18.8109705,3.29250898 C20.8688045,5.34265912 22.0010354,8.06773822 21.9999993,10.9659365 C21.9973324,16.945922 17.1080324,21.8121347 11.1016098,21.8121347 L11.0968699,21.8121347 C9.27306576,21.8113974 7.48095934,21.3558904 5.88911144,20.491769 L0.111830759,22 Z" id="Forma" fill="#B3B3B3" fill-rule="nonzero"></path>
                <path d="M0,21.8885195 L1.54622687,16.2681913 C0.590986874,14.6194372 0.0892306255,12.7491119 0.0915382899,10.8457558 C0.0940563335,4.8653279 4.98261575,0 10.9899271,0 C13.905081,0.0014746099 16.6413056,1.13087833 18.6991397,3.18102847 C20.7569738,5.23117862 21.8892047,7.95625771 21.8881685,10.854456 C21.8855017,16.8344415 16.9962016,21.7006542 10.989779,21.7006542 L10.9850391,21.7006542 C9.161235,21.6999169 7.36912858,21.2444099 5.77728068,20.3802885 L0,21.8885195 Z" id="Trazado" fill="#FFFFFF" fill-rule="nonzero"></path>
                <path d="M10.9931858,1.83217802 C5.99664671,1.83217802 1.93326498,5.87602552 1.93147813,10.8464931 C1.92902683,12.5437661 2.40911938,14.207077 3.31626339,15.6441364 L3.53177829,15.9850662 L2.61654351,19.3116387 L6.0449339,18.4166979 L6.37598257,18.6119363 C7.76638698,19.4334415 9.3606048,19.868009 10.9863722,19.8688938 L10.989779,19.8688938 C15.9824669,19.8688938 20.0458486,15.8246287 20.0478194,10.8538662 C20.0553897,8.46079661 19.1009201,6.16417542 17.397163,4.47603089 C15.7028811,2.77859956 13.3968603,1.82657833 10.9931858,1.83217802 L10.9931858,1.83217802 Z" id="Trazado" fill="#000000" fill-rule="nonzero"></path>
                <path d="M10.9931858,1.83217767 C5.99664671,1.83217767 1.93326498,5.87602552 1.93147813,10.8464931 C1.92902683,12.5437661 2.40911938,14.207077 3.31626339,15.6441364 L3.53177829,15.9852137 L2.61654351,19.3116387 L6.0449339,18.4166979 L6.37598257,18.6119363 C7.76638698,19.4334415 9.3606048,19.8678615 10.9863722,19.8687463 L10.989779,19.8687463 C15.9824669,19.8687463 20.0458486,15.8244812 20.0478194,10.8537187 C20.0553897,8.46064915 19.1009201,6.16402796 17.397163,4.47588343 C15.7028566,2.77850621 13.3968389,1.82653933 10.9931858,1.83217767 L10.9931858,1.83217767 Z" id="Trazado" fill="url(#linearGradient-1)" fill-rule="nonzero"></path>
                <path d="M8.26599645,6.31147783 C8.0618868,5.86009974 7.8471125,5.85095716 7.65322314,5.84314172 L7.13124752,5.8368009 C6.94965214,5.8368009 6.65459668,5.90463296 6.40516225,6.17596118 C6.15572781,6.4472894 5.4520087,7.10304842 5.4520087,8.43683307 C5.4520087,9.77061773 6.42782464,11.0594268 6.56379899,11.2405089 C6.69977335,11.421591 8.44759183,14.2459113 11.2155142,15.3325513 C13.5156729,16.2356024 13.9837328,16.055995 14.4831942,16.0108719 C14.9826555,15.9657488 16.0942977,15.3551129 16.3210697,14.7220628 C16.5478418,14.0890128 16.5479899,13.5466513 16.4800027,13.4332538 C16.4120155,13.3198563 16.2304202,13.2524666 15.957879,13.1168025 C15.6853378,12.9811384 14.3467754,12.3253794 14.0971929,12.2348383 C13.8476103,12.1442973 13.6661631,12.0993217 13.4844196,12.3706499 C13.3026761,12.6419781 12.7814411,13.2523192 12.6225081,13.4332538 C12.4635751,13.6141884 12.3049383,13.6368974 12.0323972,13.5013808 C11.759856,13.3658641 10.8829843,13.0794949 9.84258797,12.1559467 C9.03311102,11.4373693 8.48669556,10.5499491 8.32761446,10.2787683 C8.16853335,10.0075875 8.31072875,9.86071639 8.44729559,9.72564213 C8.56949476,9.60413427 8.71954053,9.40904338 8.85595925,9.25081774 C8.99237796,9.0925921 9.03725838,8.97948952 9.12790795,8.7988498 C9.21855752,8.61821009 9.17338086,8.45954207 9.10524556,8.32402542 C9.03711026,8.18850877 8.50802487,6.84779345 8.26599645,6.31162529" id="Trazado" fill="#FFFFFF"></path>
            </g>
        </g>
    </g>
</svg>