<?xml version="1.0" encoding="UTF-8"?>
<svg width="1265px" height="147px" viewBox="0 0 1265 147" version="1.1" xmlns="http://www.w3.org/2000/svg" xmlns:xlink="http://www.w3.org/1999/xlink">
    <title>half_logo</title>
    <defs>
        <path d="M64.7761813,0 L0,124.208677 L24.2478345,124.208677 C36.3973389,99.3752213 61.2027977,82.7850859 89.2851816,80.7152 L89.2851816,80.7152 L107.256213,79.3904731 L130.256452,124.208677 L154.324293,124.208677 L89.7298693,0 L64.7761813,0 Z M77.3403747,21.7976233 L96.1443136,58.1396447 C84.9635932,59.1193907 76.37512,60.5389874 70.3824232,62.4001598 L70.3824232,62.4001598 C64.3879618,64.2596073 58.2505651,66.6882734 51.9667038,69.6861581 L51.9667038,69.6861581 L77.3403747,21.7976233 Z" id="path-1"></path>
        <polygon id="path-3" points="0 0 126.983056 0 126.983056 133 0 133"></polygon>
    </defs>
    <g id="half_logo" stroke="none" stroke-width="1" fill="none" fill-rule="evenodd">
        <g id="Grupo" transform="translate(32, 68)">
            <g transform="translate(0, 2.4932)" fill="#FFFFFF">
                <path d="M21.7667592,107.42725 L83.5324751,107.42725 C97.8665963,107.42725 106.538007,100.16195 106.538007,89.6089822 C106.538007,79.2302294 97.8665963,71.96493 83.5324751,71.96493 L40.339531,71.96493 C30.0817141,71.96493 21.7667592,80.0926819 21.7667592,90.1195541 L21.7667592,107.42725 Z M79.4614646,53.282485 C93.9738139,53.282485 102.823453,47.7455402 102.823453,36.847591 C102.823453,25.9496419 93.9738139,20.5869125 79.4614646,20.5869125 C79.4614646,20.5869125 21.7667592,20.5869125 21.7667592,20.5869125 C20.6162179,21.5459596 21.5620617,31.1019328 21.4985348,32.8785849 C21.3432471,37.2857169 21.1050215,41.6945738 21.0238483,46.1034307 C20.8703252,54.3864241 20.3391704,62.8143094 21.743819,71.0541802 C22.8608322,63.7492079 29.0476387,57.9535274 36.0197072,55.1039845 C49.9426687,49.4117983 64.9279398,53.282485 79.4614646,53.282485 L79.4614646,53.282485 Z M0,1.9027426 L81.5843192,1.9027426 C108.840854,1.9027426 124.235521,13.4941035 124.235521,34.598315 C124.235521,49.9948162 114.148873,57.9518025 105.299234,61.4119618 C118.57281,65.5638079 128.306531,76.2892666 128.306531,91.5115523 C128.306531,113.309176 110.961944,126.11142 84.7712481,126.11142 L0,126.11142 L0,1.9027426 Z" id="Fill-1"></path>
                <polygon id="Fill-3" points="143.866014 1.90257011 166.518619 1.90257011 166.518619 106.737115 259.25366 106.737115 259.25366 126.111247 143.866014 126.111247"></polygon>
                <polygon id="Fill-5" points="556.014614 126.11073 536.194246 126.11073 449.474842 29.7540921 449.474842 126.11073 427.708083 126.11073 427.708083 1.90205264 451.070071 1.90205264 534.247855 94.1068442 534.247855 1.90205264 556.014614 1.90205264"></polygon>
                <path d="M647.319772,0 C679.706098,0 703.952168,14.5323238 713.684124,38.4032828 L694.92783,48.4387795 C686.78581,29.7546096 670.503532,19.5483473 647.498,19.5483473 C617.58922,19.5483473 595.644233,37.5391054 595.644233,64.0077712 C595.644233,90.474712 617.58922,108.46547 647.498,108.46547 C670.503532,108.46547 686.78581,98.2592078 694.92783,79.5767628 L713.684124,89.6088097 C703.952168,113.483218 679.706098,128.013817 647.319772,128.013817 C604.668571,128.013817 572.458708,100.85519 572.458708,64.0077712 C572.458708,27.1603526 604.668571,0 647.319772,0" id="Fill-7"></path>
            </g>
            <g transform="translate(270.3784, 4.3945)">
                <mask id="mask-2" fill="white">
                    <use xlink:href="#path-1"></use>
                </mask>
                <g id="Clip-10"></g>
                <polygon id="Fill-9" fill="#FFFFFF" mask="url(#mask-2)" points="-2.45637039 126.613195 156.782428 126.613195 156.782428 -2.40106763 -2.45637039 -2.40106763"></polygon>
            </g>
            <g transform="translate(751.2309, 0)">
                <g>
                    <mask id="mask-4" fill="white">
                        <use xlink:href="#path-3"></use>
                    </mask>
                    <g id="Clip-12"></g>
                    <path d="M37.7208143,73.2567112 L72.5564522,104.551661 C64.0720924,111.854908 54.8765851,115.556554 45.2028621,115.556554 C30.2722946,115.556554 19.4356778,107.220089 19.4356778,95.7356719 C19.4356778,85.0274623 24.9183953,78.2572106 37.7208143,73.2567112 L37.7208143,73.2567112 Z M97.7801292,102.94405 C105.627456,92.6963895 111.687209,81.151601 115.798806,68.6063676 L116.571716,66.2553222 L97.665428,66.2553222 L97.250739,67.4955289 C94.0885151,76.9290338 89.9557425,85.0585106 84.9512407,91.6924948 L45.9034217,56.8545905 C37.505529,49.4840719 33.0639454,41.6323047 33.0639454,34.1496673 C33.0639454,24.3142595 40.3854115,17.4439633 50.8638076,17.4439633 C62.0004122,17.4439633 70.0824355,25.0525188 70.0824355,35.5347659 L70.0824355,37.3355666 L89.3575316,37.3355666 L89.3416499,35.5192418 C89.1563633,14.9376765 72.9746704,0 50.8638076,0 C29.4746801,0 13.8153188,13.8458117 13.6247384,32.9129105 C13.481803,42.2498207 17.2351793,51.4073408 25.0860356,60.8477454 C12.961236,66.6054779 0,75.9958602 0,96.2548683 C0,117.54537 18.1157316,133.000517 43.0782428,133.000517 C57.8252884,133.000517 72.4152815,127.120317 85.3659297,115.979156 L99.7071094,128.676181 L126.983056,128.676181 L97.7801292,102.94405 Z" id="Fill-11" fill="#FFFFFF" mask="url(#mask-4)"></path>
                </g>
                <path d="M224.773773,2.49317755 C257.160099,2.49317755 281.406168,17.0255014 291.138124,40.8964603 L272.381831,50.931957 C264.23981,32.2477871 247.957533,22.0415248 224.952001,22.0415248 C195.043221,22.0415248 173.098233,40.032283 173.098233,66.5009487 C173.098233,92.9678895 195.043221,110.958648 224.952001,110.958648 C247.957533,110.958648 264.23981,100.752385 272.381831,82.0699404 L291.138124,92.1019873 C281.406168,115.976396 257.160099,130.506995 224.773773,130.506995 C182.122571,130.506995 149.912709,103.348367 149.912709,66.5009487 C149.912709,29.6535302 182.122571,2.49317755 224.773773,2.49317755" id="Fill-13" fill="#FFFFFF"></path>
                <path d="M320.32711,66.5004312 C320.32711,92.9673721 341.03156,110.95813 371.649723,110.95813 C402.266121,110.95813 422.970571,92.9673721 422.970571,66.5004312 C422.970571,40.0317655 402.266121,22.0410073 371.649723,22.0410073 C341.03156,22.0410073 320.32711,40.0317655 320.32711,66.5004312 M446.156095,66.5004312 C446.156095,103.34785 414.653851,130.506477 371.649723,130.506477 C328.64383,130.506477 297.141585,103.34785 297.141585,66.5004312 C297.141585,29.6530127 328.64383,2.49266008 371.649723,2.49266008 C414.653851,2.49266008 446.156095,29.6530127 446.156095,66.5004312" id="Fill-15" fill="#FFFFFF"></path>
            </g>
        </g>
    </g>
</svg>